<svg width="24" height="24" viewBox="0 0 24 24" fill="none" xmlns="http://www.w3.org/2000/svg">
<path fill-rule="evenodd" clip-rule="evenodd" d="M16.6667 8.66667C16.6667 10.1394 15.4728 11.3333 14 11.3333C12.5272 11.3333 11.3333 10.1394 11.3333 8.66667C11.3333 7.19391 12.5272 6 14 6C15.4728 6 16.6667 7.19391 16.6667 8.66667ZM15.3333 8.66667C15.3333 9.40305 14.7364 10 14 10C13.2636 10 12.6667 9.40305 12.6667 8.66667C12.6667 7.93029 13.2636 7.33333 14 7.33333C14.7364 7.33333 15.3333 7.93029 15.3333 8.66667Z" fill="black"/>
<path d="M16.6667 14C16.6667 13.6318 16.3682 13.3333 16 13.3333H12C11.6318 13.3333 11.3333 13.6318 11.3333 14V18H10V14C10 12.8954 10.8954 12 12 12H16C17.1046 12 18 12.8954 18 14V18H16.6667V14Z" fill="black"/>
</svg>
